<svg xmlns="http://www.w3.org/2000/svg" xmlns:xlink="http://www.w3.org/1999/xlink">
  <defs>
    <symbol viewBox="0 0 24 24" id="moon"><path fill="currentColor" d="M12.058 20q-3.333 0-5.667-2.334T4.058 12q0-2.47 1.413-4.535q1.414-2.067 4.01-2.973q.306-.107.536-.056t.381.199t.192.38q.04.233-.063.489q-.194.477-.282.971T10.158 7.5q0 2.673 1.863 4.537q1.864 1.863 4.537 1.863q.698 0 1.277-.148q.58-.148.988-.24q.218-.04.399.01t.292.176q.115.125.156.308t-.047.417q-.715 2.45-2.803 4.013T12.058 20"></path></symbol>
    <symbol viewBox="0 0 24 24" id="sun"><path fill="currentColor" d="M12 16q-1.671 0-2.835-1.164Q8 13.67 8 12t1.165-2.835T12 8t2.836 1.165T16 12t-1.164 2.836T12 16M2 12.5q-.213 0-.356-.144t-.144-.357t.144-.356T2 11.5h2.5q.213 0 .356.144t.144.357t-.144.356t-.356.143zm17.5 0q-.213 0-.356-.144T19 11.999t.144-.356t.356-.143H22q.213 0 .356.144t.144.357t-.144.356T22 12.5zM12 5q-.213 0-.357-.144T11.5 4.5V2q0-.213.144-.356t.357-.144t.356.144T12.5 2v2.5q0 .213-.144.356T11.999 5m0 17.5q-.212 0-.356-.144T11.5 22v-2.5q0-.213.144-.356t.357-.144t.356.144t.143.356V22q0 .213-.144.356t-.357.144M6.362 7.03l-1.44-1.395q-.147-.14-.144-.344t.149-.37q.16-.165.354-.165t.354.165L7.05 6.342q.16.166.16.354q0 .189-.15.354t-.342.153t-.356-.172m12.004 12.048l-1.416-1.421q-.16-.166-.16-.357t.16-.351q.13-.165.327-.153q.196.013.362.172l1.44 1.397q.146.14.143.344t-.149.369q-.16.165-.354.165t-.354-.165M16.95 7.059q-.165-.15-.153-.34t.172-.358l1.397-1.44q.14-.146.344-.143t.369.149q.165.16.165.354t-.165.353L17.658 7.05q-.166.16-.354.16t-.354-.15M4.921 19.083q-.165-.17-.165-.364t.165-.353l1.421-1.416q.166-.16.357-.16q.192 0 .351.16q.146.13.134.327q-.013.196-.153.362l-1.397 1.44q-.159.165-.353.162q-.195-.002-.36-.158"></path></symbol>
    <symbol viewBox="0 0 24 24" id="laptop"><path fill="currentColor" d="M2.27 19.27q-.518 0-.894-.377T1 18h3.616q-.691 0-1.153-.462T3 16.384V5.616q0-.691.463-1.153T4.615 4h14.77q.69 0 1.152.463T21 5.616v10.769q0 .69-.463 1.153T19.385 18H23q0 .517-.376.893t-.893.376zm9.73-.5q.252 0 .434-.183t.182-.433t-.182-.434t-.434-.18t-.434.181t-.182.434t.182.433t.434.182M4.616 17h14.769q.23 0 .423-.192t.192-.424V5.616q0-.231-.192-.424T19.385 5H4.615q-.23 0-.423.192T4 5.616v10.769q0 .23.192.423t.423.192M4 17V5z"></path></symbol>
    <symbol viewBox="0 0 24 24" id="dot"><path fill="currentColor" d="M12 15a3 3 0 1 1 0-6a3 3 0 0 1 0 6Z"></path></symbol>
    <symbol viewBox="0 0 24 24" id="check"><path fill="currentColor" d="m10 16.4l-4-4L7.4 11l2.6 2.6L16.6 7L18 8.4z"></path></symbol>
    <symbol viewBox="0 0 24 24" id="arrow-right"><path fill="currentColor" d="m13.692 17.308l-.707-.72l4.088-4.088H5v-1h12.073l-4.088-4.088l.707-.72L19 12z"></path></symbol>
    <symbol viewBox="0 0 24 24" id="arrow-left"><path fill="currentColor" d="M9.904 17.308L4.596 12l5.308-5.308l.708.72L6.523 11.5h12.88v1H6.524l4.089 4.089z"></path></symbol>
    <symbol viewBox="0 0 24 24" id="google-logo"><path fill="currentColor" d="M11.956 10.356v3.451h4.792c-.446 2.193-2.313 3.453-4.792 3.453a5.28 5.28 0 0 1 0-10.559a5.166 5.166 0 0 1 3.29 1.178l2.6-2.6a8.93 8.93 0 1 0-5.89 15.635c4.467 0 8.529-3.249 8.529-8.934a7.468 7.468 0 0 0-.2-1.625l-8.329.001Z"></path></symbol>
    <symbol viewBox="0 0 24 24" id="upcoming"><path fill="currentColor" d="M4.616 20q-.691 0-1.153-.462T3 18.384v-3.768q0-.691.463-1.153T4.615 13h3.616q.327 1.327 1.375 2.164T12 16q1.385 0 2.433-.836q1.048-.837 1.336-2.164h3.616q.69 0 1.152.462T21 14.615v3.77q0 .69-.463 1.152T19.385 20zm0-1h14.769q.23 0 .423-.192t.192-.424v-3.768q0-.231-.192-.424T19.385 14H16.6q-.644 1.375-1.872 2.188Q13.5 17 12 17t-2.728-.812T7.4 14H4.615q-.23 0-.423.192T4 14.616v3.769q0 .23.192.423t.423.192m12.793-8.315l-.708-.708l2.858-2.858l.707.708zm-10.816 0L3.735 7.827l.707-.708L7.3 9.977zM11.5 8.039v-4h1v4zM4.616 19H4h16z"></path></symbol>
    <symbol viewBox="0 0 36 36" id="avatar"><path fill="currentColor" d="M18 17a7 7 0 1 0-7-7a7 7 0 0 0 7 7m0-12a5 5 0 1 1-5 5a5 5 0 0 1 5-5" class="clr-i-outline clr-i-outline-path-1"></path><path fill="currentColor" d="M30.47 24.37a17.16 17.16 0 0 0-24.93 0A2 2 0 0 0 5 25.74V31a2 2 0 0 0 2 2h22a2 2 0 0 0 2-2v-5.26a2 2 0 0 0-.53-1.37M29 31H7v-5.27a15.17 15.17 0 0 1 22 0Z" class="clr-i-outline clr-i-outline-path-2"></path><path fill="none" d="M0 0h36v36H0z"></path></symbol>
    <symbol viewBox="0 0 20 20" id="loading"><path fill="currentColor" d="M10 3a7 7 0 0 0-7 7a.5.5 0 0 1-1 0a8 8 0 1 1 8 8a.5.5 0 0 1 0-1a7 7 0 1 0 0-14"></path></symbol>
    <symbol viewBox="0 0 24 24" id="check"><path fill="currentColor" d="m9.55 17.308l-4.97-4.97l.714-.713l4.256 4.256l9.156-9.156l.713.714z"></path></symbol>
    <symbol viewBox="0 0 24 24" id="cross"><path fill="none" stroke="currentColor" stroke-linecap="round" d="m6 6l12 12m0-12L6 18"></path></symbol>
    <symbol viewBox="0 0 24 24" id="minus"><path fill="currentColor" d="M19 12.998H5v-2h14z"></path></symbol>
    <symbol viewBox="0 0 24 24" id="lock-open"><path fill="currentColor" d="M6.616 9H15V7q0-1.25-.875-2.125T12 4t-2.125.875T9 7H8q0-1.671 1.165-2.835Q10.329 3 12 3t2.836 1.165T16 7v2h1.385q.67 0 1.143.472q.472.472.472 1.144v8.769q0 .67-.472 1.143q-.472.472-1.143.472H6.615q-.67 0-1.143-.472Q5 20.056 5 19.385v-8.77q0-.67.472-1.143Q5.944 9 6.616 9m0 11h10.769q.269 0 .442-.173t.173-.442v-8.77q0-.269-.173-.442T17.385 10H6.615q-.269 0-.442.173T6 10.616v8.769q0 .269.173.442t.443.173M12 16.5q.633 0 1.066-.434q.434-.433.434-1.066t-.434-1.066T12 13.5t-1.066.434Q10.5 14.367 10.5 15t.434 1.066q.433.434 1.066.434M6 20V10z"></path></symbol>
    <symbol viewBox="0 0 24 24" id="chevron-right"><path fill="none" stroke="currentColor" stroke-linecap="round" stroke-linejoin="round" stroke-width="2" d="m9 18l6-6l-6-6"></path></symbol>
    <symbol viewBox="0 0 24 24" id="more-horiz"><path fill="currentColor" d="M6 14q-.825 0-1.412-.587T4 12t.588-1.412T6 10t1.413.588T8 12t-.587 1.413T6 14m6 0q-.825 0-1.412-.587T10 12t.588-1.412T12 10t1.413.588T14 12t-.587 1.413T12 14m6 0q-.825 0-1.412-.587T16 12t.588-1.412T18 10t1.413.588T20 12t-.587 1.413T18 14"></path></symbol>
    <symbol viewBox="0 0 24 24" id="chevron-down"><path fill="currentColor" d="m5.84 9.59l5.66 5.66l5.66-5.66l-.71-.7l-4.95 4.95l-4.95-4.95z"></path></symbol>
    <symbol viewBox="0 0 24 24" id="add"><path fill="currentColor" d="M11 13H5v-2h6V5h2v6h6v2h-6v6h-2z"></path></symbol>
    <symbol viewBox="0 0 24 24" id="trash"><path fill="currentColor" d="M5 21V6H4V4h5V3h6v1h5v2h-1v15zm2-2h10V6H7zm2-2h2V8H9zm4 0h2V8h-2zM7 6v13z"></path></symbol>
    <symbol viewBox="0 0 24 24" id="passkey"><path fill="currentColor" d="M3 20v-2.8q0-.85.438-1.562T4.6 14.55q1.55-.775 3.15-1.162T11 13q.5 0 1 .038t1 .112q-.1 1.45.525 2.738T15.35 18v2zm16 3l-1.5-1.5v-4.65q-1.1-.325-1.8-1.237T15 13.5q0-1.45 1.025-2.475T18.5 10t2.475 1.025T22 13.5q0 1.125-.638 2t-1.612 1.25L21 18l-1.5 1.5L21 21zm-8-11q-1.65 0-2.825-1.175T7 8t1.175-2.825T11 4t2.825 1.175T15 8t-1.175 2.825T11 12m7.5 2q.425 0 .713-.288T19.5 13t-.288-.712T18.5 12t-.712.288T17.5 13t.288.713t.712.287"></path></symbol>
    <symbol viewBox="0 0 24 24" id="question-mark-circled"><g fill="none"><circle cx="12" cy="12" r="10" stroke="currentColor" stroke-width="1.5"></circle><path stroke="currentColor" stroke-linecap="round" stroke-width="1.5" d="M10.125 8.875a1.875 1.875 0 1 1 2.828 1.615c-.475.281-.953.708-.953 1.26V13"></path><circle cx="12" cy="16" r="1" fill="currentColor"></circle></g></symbol>
  </defs>
</svg>
